<svg viewBox="0 0 500 500" xmlns="http://www.w3.org/2000/svg"><g fill="none" stroke-width="2"><path d="m460.37 121.97q-.46.24-.12.82 37.36 64.99 32.25 140.34" stroke="#889133"/><path d="m492.5 263.13-123.2-123.17" stroke="#7b832e"/><path d="m369.3 139.96q-4.7-4.71-9.45-9.38c-30.24-29.74-69.84-46.47-112.52-46.62q-16.32-.05-30.61 2.74c-52.93 10.36-95.93 44.72-117.81 94.03q-.5 1.13-1.75 1.39-.59.12-.33.67.32.68.36 1.4.02.52-.16 1.01-15 39.54-10.58 77.31 7.17 61.27 53.98 103.86" stroke="#5a6023"/><path d="m140.43 366.37 122.74 122.86" stroke="#7b832e"/><path d="m263.17 489.23q-59.35 3.83-112.98-18.9-59.72-25.3-100.31-77.63" stroke="#889133"/><path d="m369.3 139.96.05.53q.05.51.38.91 26.49 31.93 34.43 71.35c22.16 110.03-71.64 208.22-182.57 190.98-27.97-4.35-53.37-15.77-75.74-33.48q-2.63-2.08-5.42-3.88" stroke="#21230c"/><path d="m157.13 214.27c2.59-2.5 6.84-1.82 8.47 1.42q4.51 8.94 9 18.03.23.47.75.47 14.94.06 29.67.04c4.23-.01 6.82-.49 8.8 2.82q7.04 11.76 14.06 23.46.29.47.83.47 8.42.05 17.48 0c4.94-.03 6.27 3.93 5.38 8.09q-2.62 12.39-5.04 24.92a5.86 5.8 73.2 0 1 -1.6 3.02l-19.35 19.36q-.37.36-.38.88-.16 8.05-.01 12.5.12 3.51-2.63 5.58-9.38 7.03-18.36 13.69a1.25 1.24 71.3 0 0 -.5 1.02q.07 11.04-.03 22.81c-.04 4.79-3.5 7.04-7.74 5.59q-7.48-2.56-15.12-5.07-2.52-.83-3.33-2.83-5.45-13.39-10.9-27.14a5.13 5.11 34.2 0 1 -.37-1.91v-48.96a.44.44 0 0 0 -.35-.43q-11.57-2.28-22.07-4.42-2.72-.55-4.02-3.17-5.37-10.73-10.6-21.19a4.83 4.77 32.2 0 1 -.5-2.13q-.01-7.1-.04-15.93-.01-2.33 1.33-3.79 2.74-2.98 5.91-5.94.51-.48-.07-.86-12.78-8.52-25.8-17.19-1.92-1.29-2.63-3.39-2.02-6-4.1-12.31-.24-.72-.45.01c-22.83 77.19 18.31 157.99 94.19 184.75 28.65 10.1 60.94 11.31 90.73 2.65q47.78-13.88 78.53-53.76.35-.45-.06-.86-5.09-5.09-10.54-10.53-1.89-1.88-1.89-4.52.01-9.08.04-17.88 0-1.86-.77-3.4-9.22-18.36-19.77-39.49a8.49 8.43-58.5 0 1 -.9-3.8l-.03-17.24a1.27 1.25-73.5 0 0 -.56-1.05l-10.79-7.21q-.35-.23-.75-.13l-18.49 4.64a6.1 6.07 49.5 0 1 -3.88-.31l-37.38-16.03a5.27 5.27 0 0 1 -3.13-4.09q-2.69-18.89-5.32-37.17-.45-3.08 1.81-5.33 8.39-8.37 15.79-15.74 1.54-1.54 3.89-1.54 15.94-.01 31.89 0c2.28 0 3.91 1.33 5.1 3.14q4.31 6.56 8.59 12.93.33.5.92.59 12.51 2.04 26.02 4.36 1.95.34 3.95-.34 12.82-4.36 24.02-8.04a.26.26 0 0 0 .14-.39q-7.02-11.27-15.57-20.86-.37-.42-.83-.11-5.62 3.76-11.71 7.82c-1.26.84-2.94 1.09-4.42.77q-9.97-2.15-20.65-4.13c-7.17-1.33-13.84-3.89-20.68-6.11a1.49 1.48-42.7 0 0 -.81-.03l-18.8 4.76a7.41 7.37-42.8 0 1 -4.11-.15q-7.8-2.59-15.22-5.08c-3.76-1.27-5.03-4.67-3.34-8.02q5.27-10.41 10.28-20.54 1.69-3.43 5.28-3.44 8.84-.03 18.04.01c3.46.02 7.97-3.1 11.08-4.54q.79-.37-.03-.69-50.17-19.64-101.68-3.8-.82.26-.1.73c1.85 1.23 3.97 3.07 6.16 3.43q14.62 2.38 29.57 4.93c3.55.6 5.29 3.82 4.17 7.31q-2.35 7.29-5.18 15.6c-.69 2.02-2.09 3.14-4.06 3.77q-6.56 2.12-13.03 4.34a1.59 1.59 0 0 0 -.86.7l-14.72 24.54a5.42 5.42 0 0 1 -1.87 1.87l-26.78 16.07q-1.03.62-2.23.79l-32.06 4.54q-.65.09-.65.76l-.01 7.89a1.6 1.56-68.3 0 0 .47 1.13q4.75 4.65 8.82 8.84c2.21 2.27 1.45 8.45 1.41 11.47a.31.3 67.7 0 0 .52.22q3.36-3.44 6.56-6.52" stroke="#436d79"/><g stroke="#025538"><path d="m129.05 183.87q1.33-2.81 4.27-3.24 16.82-2.47 34.07-4.84 2.35-.32 4.45-1.6 10.26-6.28 20.92-12.55 1.68-1 2.66-2.64 7.73-12.99 14.39-24.01 1.09-1.8 3.14-2.47 6.49-2.12 12.6-4.21.73-.26.98-1l2.09-6.27q.19-.58-.41-.68l-25.11-4.15a6.58 6.52 66.4 0 1 -2.6-1.03l-11.97-8q-.7-.47-1.48-.13-53.23 23.82-77.9 77.49-.2.42-.05.87l7.77 23.34q.18.54.65.86l21.08 14.03q.74.49.74-.39l.01-7.77q0-.54-.38-.92-4.28-4.27-8.67-8.65-1.54-1.54-1.58-3.49-.15-7.54-.01-17.08a3.58 3.53-32.3 0 1 .34-1.47"/><path d="m276.53 121.92-6.04 12.1a.5.5 0 0 0 .29.69l7.68 2.58q.5.17 1.01.04l19.11-4.78a6.34 6.29-43 0 1 3.5.11c6.82 2.21 13.56 4.85 20.6 6.21q9.7 1.88 18.62 3.71.65.13 1.2-.24l7.72-5.15q.45-.3.06-.67-15.51-14.79-34.06-24.52-.48-.25-.96 0l-17.67 8.87a7.02 6.98-58.1 0 1 -3.13.74l-17.4-.01a.57.57 0 0 0 -.53.32"/><path d="m373.01 325.56c29.12-44.52 31.16-102.56 6.92-149.38a.53.52 66.8 0 0 -.63-.26l-28.6 9.54q-1.89.63-3.86.3-15.4-2.62-31.47-5.28-2.18-.36-3.46-2.23-4.16-6.06-8.89-13.32-.3-.44-.83-.44h-25.94q-.63 0-1.08.44l-11.85 11.86a.9.89 63.2 0 0 -.25.77l4.41 30.93q.07.48.52.68l32.03 13.74a2.01 2 49.2 0 0 1.29.1q9.74-2.45 18.98-4.72 2.43-.59 4.64.89 8.12 5.45 15.78 10.55a5.27 5.26 16.9 0 1 2.35 4.4q-.04 9.17.02 18.1.02 2.25 1.17 4.54 9.54 18.92 19.77 39.42a4.73 4.69 32.1 0 1 .49 2.09v18.93a1.14 1.12-67.7 0 0 .33.8l7.58 7.61a.38.37 38.9 0 0 .58-.06"/><path d="m193.02 346.39c.01-1.75 1.16-3.19 2.44-4.16q8.77-6.61 18.6-13.93a.97.95-18.6 0 0 .39-.77l-.01-13.26a4.54 4.53 67.6 0 1 1.34-3.22l19.76-19.76a3.46 3.45-17.1 0 0 .95-1.79l3.43-17.22q.11-.55-.46-.55-5.95.04-11.93.01c-3.22-.01-5.39 0-7.25-3.09q-7.02-11.67-14.02-23.37-.25-.42-.74-.42-15.94-.04-33.34.05c-2.82.01-4.64-1.19-5.85-3.69q-3.33-6.9-6.89-13.81a.21.21 0 0 0 -.34-.05l-19.25 19.28q-.56.55-.54 1.34.15 4.52-.02 9.39-.08 2.16.88 4.03 4.05 7.9 7.92 15.76a1.19 1.16 82 0 0 .83.64q11.62 2.3 23.17 4.62 4.8.97 4.81 5.92.03 23.47 0 49.81-.01 2.43.91 4.66 4.19 10.17 8.19 20.4a1.6 1.6 0 0 0 .97.93l5.56 1.84a.35.35 0 0 0 .45-.33q0-9.23.04-19.26"/></g><path d="m263.17 489.23q7.78-.68 15.15-1.98 1.48-.26 3.29-.29 1.44-.03 3.39-.39 18.81-3.45 34.02-8.09 63.02-19.22 107.96-67.29 47.61-50.93 61.49-120.97 1.24-6.28 2.16-12.71.32-2.23.46-4.53c.14-2.43.95-4.7 1.12-7.18q.09-1.29.29-2.67" stroke="#4e541c"/></g><path d="m238.89 0h15.34q60.31 2.2 111.24 30.31 41.7 23.01 71.36 58.86 11.83 14.29 23.54 32.8-.46.24-.12.82 37.36 64.99 32.25 140.34l-123.2-123.17q-4.7-4.71-9.45-9.38c-30.24-29.74-69.84-46.47-112.52-46.62q-16.32-.05-30.61 2.74c-52.93 10.36-95.93 44.72-117.81 94.03q-.5 1.13-1.75 1.39-.59.12-.33.67.32.68.36 1.4.02.52-.16 1.01-15 39.54-10.58 77.31 7.17 61.27 53.98 103.86l122.74 122.86q-59.35 3.83-112.98-18.9-59.72-25.3-100.31-77.63-15.21-20.2-25.76-42.07-22.24-46.16-24.12-98.28v-15.11q3.55-84.24 56.36-148.14 29.99-36.28 72.7-59.51 50.33-27.36 109.83-29.59z" fill="#b4c045"/><path d="m369.3 139.96.05.53q.05.51.38.91 26.49 31.93 34.43 71.35c22.16 110.03-71.64 208.22-182.57 190.98-27.97-4.35-53.37-15.77-75.74-33.48q-2.63-2.08-5.42-3.88-46.81-42.59-53.98-103.86-4.42-37.77 10.58-77.31.18-.49.16-1.01-.04-.72-.36-1.4-.26-.55.33-.67 1.25-.26 1.75-1.39c21.88-49.31 64.88-83.67 117.81-94.03q14.29-2.79 30.61-2.74c42.68.15 82.28 16.88 112.52 46.62q4.75 4.67 9.45 9.38zm-212.17 74.31c2.59-2.5 6.84-1.82 8.47 1.42q4.51 8.94 9 18.03.23.47.75.47 14.94.06 29.67.04c4.23-.01 6.82-.49 8.8 2.82q7.04 11.76 14.06 23.46.29.47.83.47 8.42.05 17.48 0c4.94-.03 6.27 3.93 5.38 8.09q-2.62 12.39-5.04 24.92a5.86 5.8 73.2 0 1 -1.6 3.02l-19.35 19.36q-.37.36-.38.88-.16 8.05-.01 12.5.12 3.51-2.63 5.58-9.38 7.03-18.36 13.69a1.25 1.24 71.3 0 0 -.5 1.02q.07 11.04-.03 22.81c-.04 4.79-3.5 7.04-7.74 5.59q-7.48-2.56-15.12-5.07-2.52-.83-3.33-2.83-5.45-13.39-10.9-27.14a5.13 5.11 34.2 0 1 -.37-1.91v-48.96a.44.44 0 0 0 -.35-.43q-11.57-2.28-22.07-4.42-2.72-.55-4.02-3.17-5.37-10.73-10.6-21.19a4.83 4.77 32.2 0 1 -.5-2.13q-.01-7.1-.04-15.93-.01-2.33 1.33-3.79 2.74-2.98 5.91-5.94.51-.48-.07-.86-12.78-8.52-25.8-17.19-1.92-1.29-2.63-3.39-2.02-6-4.1-12.31-.24-.72-.45.01c-22.83 77.19 18.31 157.99 94.19 184.75 28.65 10.1 60.94 11.31 90.73 2.65q47.78-13.88 78.53-53.76.35-.45-.06-.86-5.09-5.09-10.54-10.53-1.89-1.88-1.89-4.52.01-9.08.04-17.88 0-1.86-.77-3.4-9.22-18.36-19.77-39.49a8.49 8.43-58.5 0 1 -.9-3.8l-.03-17.24a1.27 1.25-73.5 0 0 -.56-1.05l-10.79-7.21q-.35-.23-.75-.13l-18.49 4.64a6.1 6.07 49.5 0 1 -3.88-.31l-37.38-16.03a5.27 5.27 0 0 1 -3.13-4.09q-2.69-18.89-5.32-37.17-.45-3.08 1.81-5.33 8.39-8.37 15.79-15.74 1.54-1.54 3.89-1.54 15.94-.01 31.89 0c2.28 0 3.91 1.33 5.1 3.14q4.31 6.56 8.59 12.93.33.5.92.59 12.51 2.04 26.02 4.36 1.95.34 3.95-.34 12.82-4.36 24.02-8.04a.26.26 0 0 0 .14-.39q-7.02-11.27-15.57-20.86-.37-.42-.83-.11-5.62 3.76-11.71 7.82c-1.26.84-2.94 1.09-4.42.77q-9.97-2.15-20.65-4.13c-7.17-1.33-13.84-3.89-20.68-6.11a1.49 1.48-42.7 0 0 -.81-.03l-18.8 4.76a7.41 7.37-42.8 0 1 -4.11-.15q-7.8-2.59-15.22-5.08c-3.76-1.27-5.03-4.67-3.34-8.02q5.27-10.41 10.28-20.54 1.69-3.43 5.28-3.44 8.84-.03 18.04.01c3.46.02 7.97-3.1 11.08-4.54q.79-.37-.03-.69-50.17-19.64-101.68-3.8-.82.26-.1.73c1.85 1.23 3.97 3.07 6.16 3.43q14.62 2.38 29.57 4.93c3.55.6 5.29 3.82 4.17 7.31q-2.35 7.29-5.18 15.6c-.69 2.02-2.09 3.14-4.06 3.77q-6.56 2.12-13.03 4.34a1.59 1.59 0 0 0 -.86.7l-14.72 24.54a5.42 5.42 0 0 1 -1.87 1.87l-26.78 16.07q-1.03.62-2.23.79l-32.06 4.54q-.65.09-.65.76l-.01 7.89a1.6 1.56-68.3 0 0 .47 1.13q4.75 4.65 8.82 8.84c2.21 2.27 1.45 8.45 1.41 11.47a.31.3 67.7 0 0 .52.22q3.36-3.44 6.56-6.52zm-28.08-30.4q1.33-2.81 4.27-3.24 16.82-2.47 34.07-4.84 2.35-.32 4.45-1.6 10.26-6.28 20.92-12.55 1.68-1 2.66-2.64 7.73-12.99 14.39-24.01 1.09-1.8 3.14-2.47 6.49-2.12 12.6-4.21.73-.26.98-1l2.09-6.27q.19-.58-.41-.68l-25.11-4.15a6.58 6.52 66.4 0 1 -2.6-1.03l-11.97-8q-.7-.47-1.48-.13-53.23 23.82-77.9 77.49-.2.42-.05.87l7.77 23.34q.18.54.65.86l21.08 14.03q.74.49.74-.39l.01-7.77q0-.54-.38-.92-4.28-4.27-8.67-8.65-1.54-1.54-1.58-3.49-.15-7.54-.01-17.08a3.58 3.53-32.3 0 1 .34-1.47zm147.48-61.95-6.04 12.1a.5.5 0 0 0 .29.69l7.68 2.58q.5.17 1.01.04l19.11-4.78a6.34 6.29-43 0 1 3.5.11c6.82 2.21 13.56 4.85 20.6 6.21q9.7 1.88 18.62 3.71.65.13 1.2-.24l7.72-5.15q.45-.3.06-.67-15.51-14.79-34.06-24.52-.48-.25-.96 0l-17.67 8.87a7.02 6.98-58.1 0 1 -3.13.74l-17.4-.01a.57.57 0 0 0 -.53.32zm96.48 203.64c29.12-44.52 31.16-102.56 6.92-149.38a.53.52 66.8 0 0 -.63-.26l-28.6 9.54q-1.89.63-3.86.3-15.4-2.62-31.47-5.28-2.18-.36-3.46-2.23-4.16-6.06-8.89-13.32-.3-.44-.83-.44h-25.94q-.63 0-1.08.44l-11.85 11.86a.9.89 63.2 0 0 -.25.77l4.41 30.93q.07.48.52.68l32.03 13.74a2.01 2 49.2 0 0 1.29.1q9.74-2.45 18.98-4.72 2.43-.59 4.64.89 8.12 5.45 15.78 10.55a5.27 5.26 16.9 0 1 2.35 4.4q-.04 9.17.02 18.1.02 2.25 1.17 4.54 9.54 18.92 19.77 39.42a4.73 4.69 32.1 0 1 .49 2.09v18.93a1.14 1.12-67.7 0 0 .33.8l7.58 7.61a.38.37 38.9 0 0 .58-.06zm-179.99 20.83c.01-1.75 1.16-3.19 2.44-4.16q8.77-6.61 18.6-13.93a.97.95-18.6 0 0 .39-.77l-.01-13.26a4.54 4.53 67.6 0 1 1.34-3.22l19.76-19.76a3.46 3.45-17.1 0 0 .95-1.79l3.43-17.22q.11-.55-.46-.55-5.95.04-11.93.01c-3.22-.01-5.39 0-7.25-3.09q-7.02-11.67-14.02-23.37-.25-.42-.74-.42-15.94-.04-33.34.05c-2.82.01-4.64-1.19-5.85-3.69q-3.33-6.9-6.89-13.81a.21.21 0 0 0 -.34-.05l-19.25 19.28q-.56.55-.54 1.34.15 4.52-.02 9.39-.08 2.16.88 4.03 4.05 7.9 7.92 15.76a1.19 1.16 82 0 0 .83.64q11.62 2.3 23.17 4.62 4.8.97 4.81 5.92.03 23.47 0 49.81-.01 2.43.91 4.66 4.19 10.17 8.19 20.4a1.6 1.6 0 0 0 .97.93l5.56 1.84a.35.35 0 0 0 .45-.33q0-9.23.04-19.26z"/><path d="m165.6 215.69c-1.63-3.24-5.88-3.92-8.47-1.42q-3.2 3.08-6.56 6.52a.31.3 67.7 0 1 -.52-.22c.04-3.02.8-9.2-1.41-11.47q-4.07-4.19-8.82-8.84a1.6 1.56-68.3 0 1 -.47-1.13l.01-7.89q0-.67.65-.76l32.06-4.54q1.2-.17 2.23-.79l26.78-16.07a5.42 5.42 0 0 0 1.87-1.87l14.72-24.54a1.59 1.59 0 0 1 .86-.7q6.47-2.22 13.03-4.34c1.97-.63 3.37-1.75 4.06-3.77q2.83-8.31 5.18-15.6c1.12-3.49-.62-6.71-4.17-7.31q-14.95-2.55-29.57-4.93c-2.19-.36-4.31-2.2-6.16-3.43q-.72-.47.1-.73 51.51-15.84 101.68 3.8.82.32.03.69c-3.11 1.44-7.62 4.56-11.08 4.54q-9.2-.04-18.04-.01-3.59.01-5.28 3.44-5.01 10.13-10.28 20.54c-1.69 3.35-.42 6.75 3.34 8.02q7.42 2.49 15.22 5.08a7.41 7.37-42.8 0 0 4.11.15l18.8-4.76a1.49 1.48-42.7 0 1 .81.03c6.84 2.22 13.51 4.78 20.68 6.11q10.68 1.98 20.65 4.13c1.48.32 3.16.07 4.42-.77q6.09-4.06 11.71-7.82.46-.31.83.11 8.55 9.59 15.57 20.86a.26.26 0 0 1 -.14.39q-11.2 3.68-24.02 8.04-2 .68-3.95.34-13.51-2.32-26.02-4.36-.59-.09-.92-.59-4.28-6.37-8.59-12.93c-1.19-1.81-2.82-3.14-5.1-3.14q-15.95-.01-31.89 0-2.35 0-3.89 1.54-7.4 7.37-15.79 15.74-2.26 2.25-1.81 5.33 2.63 18.28 5.32 37.17a5.27 5.27 0 0 0 3.13 4.09l37.38 16.03a6.1 6.07 49.5 0 0 3.88.31l18.49-4.64q.4-.1.75.13l10.79 7.21a1.27 1.25-73.5 0 1 .56 1.05l.03 17.24a8.49 8.43-58.5 0 0 .9 3.8q10.55 21.13 19.77 39.49.77 1.54.77 3.4-.03 8.8-.04 17.88 0 2.64 1.89 4.52 5.45 5.44 10.54 10.53.41.41.06.86-30.75 39.88-78.53 53.76c-29.79 8.66-62.08 7.45-90.73-2.65-75.88-26.76-117.02-107.56-94.19-184.75q.21-.73.45-.01 2.08 6.31 4.1 12.31.71 2.1 2.63 3.39 13.02 8.67 25.8 17.19.58.38.07.86-3.17 2.96-5.91 5.94-1.34 1.46-1.33 3.79.03 8.83.04 15.93a4.83 4.77 32.2 0 0 .5 2.13q5.23 10.46 10.6 21.19 1.3 2.62 4.02 3.17 10.5 2.14 22.07 4.42a.44.44 0 0 1 .35.43v48.96a5.13 5.11 34.2 0 0 .37 1.91q5.45 13.75 10.9 27.14.81 2 3.33 2.83 7.64 2.51 15.12 5.07c4.24 1.45 7.7-.8 7.74-5.59q.1-11.77.03-22.81a1.25 1.24 71.3 0 1 .5-1.02q8.98-6.66 18.36-13.69 2.75-2.07 2.63-5.58-.15-4.45.01-12.5.01-.52.38-.88l19.35-19.36a5.86 5.8 73.2 0 0 1.6-3.02q2.42-12.53 5.04-24.92c.89-4.16-.44-8.12-5.38-8.09q-9.06.05-17.48 0-.54 0-.83-.47-7.02-11.7-14.06-23.46c-1.98-3.31-4.57-2.83-8.8-2.82q-14.73.02-29.67-.04-.52 0-.75-.47-4.49-9.09-9-18.03z" fill="#86daf1"/><path d="m129.05 183.87a3.58 3.53-32.3 0 0 -.34 1.47q-.14 9.54.01 17.08.04 1.95 1.58 3.49 4.39 4.38 8.67 8.65.38.38.38.92l-.01 7.77q0 .88-.74.39l-21.08-14.03q-.47-.32-.65-.86l-7.77-23.34q-.15-.45.05-.87 24.67-53.67 77.9-77.49.78-.34 1.48.13l11.97 8a6.58 6.52 66.4 0 0 2.6 1.03l25.11 4.15q.6.1.41.68l-2.09 6.27q-.25.74-.98 1-6.11 2.09-12.6 4.21-2.05.67-3.14 2.47-6.66 11.02-14.39 24.01-.98 1.64-2.66 2.64-10.66 6.27-20.92 12.55-2.1 1.28-4.45 1.6-17.25 2.37-34.07 4.84-2.94.43-4.27 3.24z" fill="#03aa6f"/><path d="m276.53 121.92a.57.57 0 0 1 .53-.32l17.4.01a7.02 6.98-58.1 0 0 3.13-.74l17.67-8.87q.48-.25.96 0 18.55 9.73 34.06 24.52.39.37-.06.67l-7.72 5.15q-.55.37-1.2.24-8.92-1.83-18.62-3.71c-7.04-1.36-13.78-4-20.6-6.21a6.34 6.29-43 0 0 -3.5-.11l-19.11 4.78q-.51.13-1.01-.04l-7.68-2.58a.5.5 0 0 1 -.29-.69z" fill="#03aa6f"/><path d="m460.37 121.97q37.05 57.23 39.63 125.93v14.59q-2.15 58.77-29.32 108.46-23.25 42.52-59.29 72.19-64.9 53.43-150.52 56.86h-14.87q-37.47-1.38-70.75-12.57-72.6-24.43-119.61-86.08-3.57-4.68-5.76-8.65 40.59 52.33 100.31 77.63 53.63 22.73 112.98 18.9 7.78-.68 15.15-1.98 1.48-.26 3.29-.29 1.44-.03 3.39-.39 18.81-3.45 34.02-8.09 63.02-19.22 107.96-67.29 47.61-50.93 61.49-120.97 1.24-6.28 2.16-12.71.32-2.23.46-4.53c.14-2.43.95-4.7 1.12-7.18q.09-1.29.29-2.67 5.11-75.35-32.25-140.34-.34-.58.12-.82z" fill="#5b6221"/><path d="m369.3 139.96 123.2 123.17q-.2 1.38-.29 2.67c-.17 2.48-.98 4.75-1.12 7.18q-.14 2.3-.46 4.53-.92 6.43-2.16 12.71-13.88 70.04-61.49 120.97-44.94 48.07-107.96 67.29-15.21 4.64-34.02 8.09-1.95.36-3.39.39-1.81.03-3.29.29-7.37 1.3-15.15 1.98l-122.74-122.86q2.79 1.8 5.42 3.88c22.37 17.71 47.77 29.13 75.74 33.48 110.93 17.24 204.73-80.95 182.57-190.98q-7.94-39.42-34.43-71.35-.33-.4-.38-.91z" fill="#414617"/><g fill="#03aa6f"><path d="m379.93 176.18c24.24 46.82 22.2 104.86-6.92 149.38a.38.37 38.9 0 1 -.58.06l-7.58-7.61a1.14 1.12-67.7 0 1 -.33-.8v-18.93a4.73 4.69 32.1 0 0 -.49-2.09q-10.23-20.5-19.77-39.42-1.15-2.29-1.17-4.54-.06-8.93-.02-18.1a5.27 5.26 16.9 0 0 -2.35-4.4q-7.66-5.1-15.78-10.55-2.21-1.48-4.64-.89-9.24 2.27-18.98 4.72a2.01 2 49.2 0 1 -1.29-.1l-32.03-13.74q-.45-.2-.52-.68l-4.41-30.93a.9.89 63.2 0 1 .25-.77l11.85-11.86q.45-.44 1.08-.44h25.94q.53 0 .83.44 4.73 7.26 8.89 13.32 1.28 1.87 3.46 2.23 16.07 2.66 31.47 5.28 1.97.33 3.86-.3l28.6-9.54a.53.52 66.8 0 1 .63.26z"/><path d="m195.46 342.23c-1.28.97-2.43 2.41-2.44 4.16q-.04 10.03-.04 19.26a.35.35 0 0 1 -.45.33l-5.56-1.84a1.6 1.6 0 0 1 -.97-.93q-4-10.23-8.19-20.4-.92-2.23-.91-4.66.03-26.34 0-49.81-.01-4.95-4.81-5.92-11.55-2.32-23.17-4.62a1.19 1.16 82 0 1 -.83-.64q-3.87-7.86-7.92-15.76-.96-1.87-.88-4.03.17-4.87.02-9.39-.02-.79.54-1.34l19.25-19.28a.21.21 0 0 1 .34.05q3.56 6.91 6.89 13.81c1.21 2.5 3.03 3.7 5.85 3.69q17.4-.09 33.34-.05.49 0 .74.42 7 11.7 14.02 23.37c1.86 3.09 4.03 3.08 7.25 3.09q5.98.03 11.93-.01.57 0 .46.55l-3.43 17.22a3.46 3.45-17.1 0 1 -.95 1.79l-19.76 19.76a4.54 4.53 67.6 0 0 -1.34 3.22l.01 13.26a.97.95-18.6 0 1 -.39.77q-9.83 7.32-18.6 13.93z"/></g></svg>